<svg xmlns="http://www.w3.org/2000/svg" width="80" height="100" viewBox="0 0 80 100">
  <rect x="0" y="0" width="80" height="80" rx="40" fill="#E65100"/>
  <polygon points="25,72 55,72 40,100" fill="#E65100"/>
  <rect x="8" y="38" width="18" height="36" fill="white"/>
  <rect x="54" y="38" width="18" height="36" fill="white"/>
  <rect x="4" y="30" width="72" height="11" fill="white"/>
  <rect x="32" y="41" width="16" height="33" fill="white"/>
  <rect x="4" y="41" width="6" height="18" fill="white"/>
  <rect x="70" y="41" width="6" height="18" fill="white"/>
  <rect x="13" y="46" width="5" height="8" rx="1" fill="#E65100"/>
  <rect x="13" y="59" width="5" height="8" rx="1" fill="#E65100"/>
  <rect x="62" y="46" width="5" height="8" rx="1" fill="#E65100"/>
  <rect x="62" y="59" width="5" height="8" rx="1" fill="#E65100"/>
  <circle cx="62" cy="18" r="18" fill="#1B5FA8" stroke="white" stroke-width="2"/>
  <rect x="53" y="11" width="18" height="9" rx="2" fill="white" opacity="0.95"/>
  <rect x="53" y="8" width="8" height="12" rx="1.5" fill="white" opacity="0.95"/>
  <polygon points="62,20 57,27 67,27" fill="white" opacity="0.95"/>
</svg>
