<svg xmlns="http://www.w3.org/2000/svg" width="80" height="100" viewBox="0 0 80 100">
  <rect x="0" y="0" width="80" height="80" rx="40" fill="#D7B896"/>
  <polygon points="25,72 55,72 40,100" fill="#D7B896"/>
  <rect x="14" y="44" width="52" height="30" rx="2" fill="#6D4C41"/>
  <polygon points="8,46 40,22 72,46" fill="#4E342E"/>
  <rect x="28" y="54" width="20" height="20" rx="2" fill="#D7B896"/>
  <path d="M28,60 Q38,50 48,60" fill="#4E342E"/>
  <rect x="15" y="49" width="10" height="10" rx="1" fill="#D7B896" opacity="0.8"/>
  <rect x="55" y="49" width="10" height="10" rx="1" fill="#D7B896" opacity="0.8"/>
  <circle cx="40" cy="14" r="6" fill="#FDD835"/>
  <line x1="40" y1="5"  x2="40" y2="3"  stroke="#FDD835" stroke-width="1.5" stroke-linecap="round"/>
  <line x1="47" y1="8"  x2="49" y2="6"  stroke="#FDD835" stroke-width="1.5" stroke-linecap="round"/>
  <line x1="33" y1="8"  x2="31" y2="6"  stroke="#FDD835" stroke-width="1.5" stroke-linecap="round"/>
</svg>
