<svg xmlns="http://www.w3.org/2000/svg" width="120" height="120" viewBox="0 0 120 120">
  <defs><clipPath id="c"><rect width="120" height="120" rx="16"/></clipPath></defs>
  <rect width="120" height="120" rx="16" fill="#455A64"/>
  <rect x="0" y="0" width="120" height="55" rx="16" fill="#263238"/>
  <rect x="0" y="39" width="120" height="16" fill="#263238"/>
  <rect x="10" y="40" width="100" height="44" rx="7" fill="white" opacity="0.5"/>
  <rect x="10" y="30" width="40" height="54" rx="6" fill="white" opacity="0.5"/>
  <rect x="15" y="35" width="22" height="18" rx="3" fill="#455A64"/>
  <rect x="64" y="46" width="30" height="20" rx="3" fill="#455A64"/>
  <circle cx="30" cy="86" r="11" fill="#455A64"/>
  <circle cx="30" cy="86" r="6.5" fill="white" opacity="0.5"/>
  <circle cx="88" cy="86" r="11" fill="#455A64"/>
  <circle cx="88" cy="86" r="6.5" fill="white" opacity="0.5"/>
  <rect x="10" y="98" width="100" height="14" rx="3" fill="#1C2B33"/>
  <text x="60" y="109" font-family="sans-serif" font-size="11" font-weight="700" text-anchor="middle" dominant-baseline="central" fill="white" opacity="0.6">P</text>
  <circle cx="20" cy="20" r="2.5" fill="white" opacity="0.45"/>
  <circle cx="36" cy="12" r="1.5" fill="white" opacity="0.35"/>
  <circle cx="96" cy="24" r="20" fill="#FF8F00" stroke="white" stroke-width="2.5"/>
  <text x="96" y="24" font-family="sans-serif" font-size="20" font-weight="700" text-anchor="middle" dominant-baseline="central" fill="white">?</text>
</svg>
