<svg xmlns="http://www.w3.org/2000/svg" width="80" height="100" viewBox="0 0 80 100">
  <rect x="0" y="0" width="80" height="80" rx="40" fill="#455A64"/>
  <rect x="0" y="0" width="80" height="40" rx="40" fill="#263238"/>
  <rect x="0" y="20" width="80" height="20" fill="#263238"/>
  <polygon points="25,72 55,72 40,100" fill="#455A64"/>
  <rect x="7" y="28" width="66" height="32" rx="5" fill="white" opacity="0.45"/>
  <rect x="7" y="20" width="28" height="40" rx="4" fill="white" opacity="0.45"/>
  <rect x="10" y="23" width="16" height="13" rx="2" fill="#455A64"/>
  <rect x="44" y="32" width="22" height="14" rx="2" fill="#455A64"/>
  <circle cx="20" cy="62" r="8" fill="#455A64"/>
  <circle cx="20" cy="62" r="4.5" fill="white" opacity="0.45"/>
  <circle cx="60" cy="62" r="8" fill="#455A64"/>
  <circle cx="60" cy="62" r="4.5" fill="white" opacity="0.45"/>
  <rect x="7" y="70" width="66" height="9" rx="3" fill="#1C2B33"/>
  <text x="40" y="78" font-family="sans-serif" font-size="8" font-weight="700" text-anchor="middle" dominant-baseline="central" fill="white" opacity="0.5">P</text>
  <circle cx="20" cy="20" r="2.5" fill="white" opacity="0.45"/>
  <circle cx="36" cy="12" r="1.5" fill="white" opacity="0.35"/>
  <circle cx="62" cy="18" r="18" fill="#FF8F00" stroke="white" stroke-width="2"/>
  <text x="62" y="18" font-family="sans-serif" font-size="18" font-weight="700" text-anchor="middle" dominant-baseline="central" fill="white">?</text>
</svg>
