<svg xmlns="http://www.w3.org/2000/svg" width="80" height="100" viewBox="0 0 80 100">
  <rect x="0" y="0" width="80" height="80" rx="40" fill="#1B5FA8"/>
  <polygon points="25,72 55,72 40,100" fill="#1B5FA8"/>
  <rect x="7" y="26" width="66" height="34" rx="5" fill="white"/>
  <rect x="7" y="18" width="28" height="42" rx="4" fill="white"/>
  <rect x="10" y="21" width="16" height="14" rx="2" fill="#1B5FA8"/>
  <rect x="44" y="30" width="22" height="15" rx="2" fill="#1B5FA8"/>
  <circle cx="20" cy="62" r="8" fill="#1B5FA8"/>
  <circle cx="20" cy="62" r="5" fill="white"/>
  <circle cx="60" cy="62" r="8" fill="#1B5FA8"/>
  <circle cx="60" cy="62" r="5" fill="white"/>
  <rect x="8" y="70" width="64" height="2" rx="1" fill="white" opacity="0.6"/>
  <rect x="28" y="72" width="24" height="9" rx="1" fill="none" stroke="white" stroke-width="1.8"/>
  <polygon points="40,74 35,79 45,79" fill="white"/>
</svg>
