<svg xmlns="http://www.w3.org/2000/svg" width="120" height="120" viewBox="0 0 120 120">
  <rect width="120" height="120" rx="16" fill="#1A237E"/>
  <rect x="10" y="40" width="100" height="46" rx="7" fill="white" opacity="0.92"/>
  <rect x="10" y="30" width="40" height="56" rx="6" fill="white" opacity="0.92"/>
  <rect x="15" y="35" width="22" height="18" rx="3" fill="#1A237E"/>
  <rect x="64" y="46" width="30" height="20" rx="3" fill="#1A237E"/>
  <circle cx="30" cy="88" r="11" fill="#1A237E"/>
  <circle cx="30" cy="88" r="6.5" fill="white" opacity="0.92"/>
  <circle cx="88" cy="88" r="11" fill="#1A237E"/>
  <circle cx="88" cy="88" r="6.5" fill="white" opacity="0.92"/>
  <rect x="10" y="100" width="100" height="14" rx="3" fill="#0D1757"/>
  <text x="60" y="111" font-family="sans-serif" font-size="11" font-weight="700" text-anchor="middle" dominant-baseline="central" fill="white">P</text>
  <circle cx="60" cy="16" r="2.5" fill="white" opacity="0.5"/>
  <circle cx="72" cy="10" r="1.5" fill="white" opacity="0.35"/>
  <circle cx="96" cy="24" r="20" fill="#1B5FA8" stroke="white" stroke-width="2.5"/>
  <rect x="86" y="16" width="20" height="11" rx="2.5" fill="white" opacity="0.95"/>
  <rect x="86" y="13" width="9" height="14" rx="2" fill="white" opacity="0.95"/>
  <polygon points="96,27 90,35 102,35" fill="white" opacity="0.95"/>
</svg>
