<svg xmlns="http://www.w3.org/2000/svg" width="80" height="100" viewBox="0 0 80 100">
  <rect x="0" y="0" width="80" height="80" rx="40" fill="#1A237E"/>
  <polygon points="25,72 55,72 40,100" fill="#1A237E"/>
  <rect x="7" y="28" width="66" height="32" rx="5" fill="white" opacity="0.92"/>
  <rect x="7" y="20" width="28" height="40" rx="4" fill="white" opacity="0.92"/>
  <rect x="10" y="23" width="16" height="13" rx="2" fill="#1A237E"/>
  <rect x="44" y="32" width="22" height="14" rx="2" fill="#1A237E"/>
  <circle cx="20" cy="62" r="8" fill="#1A237E"/>
  <circle cx="20" cy="62" r="4.5" fill="white" opacity="0.92"/>
  <circle cx="60" cy="62" r="8" fill="#1A237E"/>
  <circle cx="60" cy="62" r="4.5" fill="white" opacity="0.92"/>
  <rect x="7" y="70" width="66" height="9" rx="3" fill="#0D1757"/>
  <text x="40" y="78" font-family="sans-serif" font-size="8" font-weight="700" text-anchor="middle" dominant-baseline="central" fill="white">P</text>
  <circle cx="38" cy="14" r="2" fill="white" opacity="0.5"/>
  <circle cx="48" cy="9" r="1.5" fill="white" opacity="0.35"/>
  <circle cx="62" cy="18" r="18" fill="#1B5FA8" stroke="white" stroke-width="2"/>
  <rect x="53" y="11" width="18" height="9" rx="2" fill="white" opacity="0.95"/>
  <rect x="53" y="8" width="8" height="12" rx="1.5" fill="white" opacity="0.95"/>
  <polygon points="62,20 57,27 67,27" fill="white" opacity="0.95"/>
</svg>
